<svg xmlns="http://www.w3.org/2000/svg" width="32" height="32"><path d="M16.01 4a.772.772 0 0 0-.442.143L2.295 13.486c-.321.237-.396.663-.149.971.247.308.691.38 1.012.143l12.856-9.036 12.828 9.059a.687.687 0 0 0 .42.143.746.746 0 0 0 .592-.286.694.694 0 0 0-.149-.994L16.432 4.143A.687.687 0 0 0 16.01 4zM5.799 14.742c-.42 0-.74.308-.74.711v11.834c0 .38.32.711.74.711h7.277c.395 0 .693-.284.717-.639v-6.83c0-1.162.986-2.111 2.195-2.111 1.21 0 2.196.95 2.196 2.111v6.83c.025.356.344.639.714.639h7.28c.395 0 .74-.308.74-.71v-11.81a.728.728 0 0 0-.74-.71c-.395 0-.74.308-.74.71v11.145h-5.8v-6.094c0-1.92-1.627-3.51-3.65-3.51-2.023 0-3.65 1.565-3.65 3.51v6.07H6.539V15.454a.728.728 0 0 0-.74-.71z"/></svg>