<svg xmlns="http://www.w3.org/2000/svg" width="32" height="32"><path d="M8.205 18.92l-.974 3.64-3.563.075A13.937 13.937 0 0 1 2 16c0-2.321.565-4.51 1.565-6.439h.001l3.172.582 1.389 3.152A8.322 8.322 0 0 0 7.677 16c0 1.028.187 2.012.528 2.92z" fill="#fbbb00"/><path d="M29.755 13.385a14.03 14.03 0 0 1-.062 5.538 13.998 13.998 0 0 1-4.928 7.995l-.001-.001-3.995-.204-.565-3.53a8.343 8.343 0 0 0 3.59-4.26h-7.486v-5.538h7.595z" fill="#518ef8"/><path d="M24.764 26.917A13.941 13.941 0 0 1 16 30c-5.332 0-9.967-2.98-12.332-7.365l4.537-3.714a8.324 8.324 0 0 0 11.999 4.263z" fill="#28b446"/><path d="M24.936 5.223l-4.535 3.713a8.327 8.327 0 0 0-12.274 4.36L3.566 9.561A13.997 13.997 0 0 1 16 2c3.397 0 6.511 1.21 8.936 3.223z" fill="#f14336"/></svg>