<svg xmlns="http://www.w3.org/2000/svg" width="32" height="32"><path fill="#e75f00" d="M29.705 13.486L16.432 4.142a.726.726 0 0 0-.864 0L2.295 13.486c-.321.237-.395.664-.148.972s.691.379 1.012.142l12.854-9.036 12.829 9.059a.684.684 0 0 0 .419.142.746.746 0 0 0 .592-.285.695.695 0 0 0-.148-.996z"/><path fill="#e75f00" d="M26.177 14.767c-.395 0-.74.308-.74.711v11.146h-5.798v-6.095c0-1.921-1.628-3.51-3.651-3.51s-3.651 1.565-3.651 3.51V26.6H6.539V15.454c0-.379-.321-.711-.74-.711s-.74.308-.74.711v11.834c0 .379.321.711.74.711h7.278c.395 0 .691-.285.715-.64v-6.83c0-1.162.987-2.111 2.196-2.111s2.196.949 2.196 2.111v6.83c.025.356.345.64.715.64h7.278c.395 0 .74-.308.74-.711v-11.81a.728.728 0 0 0-.74-.711z"/></svg>