<svg version="1.1" xmlns="http://www.w3.org/2000/svg" width="32" height="32" viewBox="0 0 32 32">
<path fill="#e75f00" d="M29.705 13.486l-13.273-9.344c-0.247-0.19-0.592-0.19-0.864 0l-13.273 9.344c-0.321 0.237-0.395 0.664-0.148 0.972s0.691 0.379 1.012 0.142l12.854-9.036 12.829 9.059c0.123 0.095 0.271 0.142 0.419 0.142 0.222 0 0.444-0.095 0.592-0.285 0.247-0.332 0.173-0.759-0.148-0.996z"></path>
<path fill="#e75f00" d="M26.177 14.767c-0.395 0-0.74 0.308-0.74 0.711v11.146h-5.798v-6.095c0-1.921-1.628-3.51-3.651-3.51s-3.651 1.565-3.651 3.51v6.071h-5.798v-11.146c0-0.379-0.321-0.711-0.74-0.711s-0.74 0.308-0.74 0.711v11.834c0 0.379 0.321 0.711 0.74 0.711h7.278c0.395 0 0.691-0.285 0.715-0.64 0-0.024 0-0.024 0-0.047v-6.783c0-1.162 0.987-2.111 2.196-2.111s2.196 0.949 2.196 2.111v6.783c0 0.024 0 0.047 0 0.047 0.025 0.356 0.345 0.64 0.715 0.64h7.278c0.395 0 0.74-0.308 0.74-0.711v-11.81c0-0.379-0.321-0.711-0.74-0.711z"></path>
</svg>
